<?xml version="1.0" encoding="UTF-8" standalone="no"?>
<!-- Created with Inkscape (http://www.inkscape.org/) -->

<svg
   xmlns:dc="http://purl.org/dc/elements/1.1/"
   xmlns:cc="http://creativecommons.org/ns#"
   xmlns:rdf="http://www.w3.org/1999/02/22-rdf-syntax-ns#"
   xmlns:svg="http://www.w3.org/2000/svg"
   xmlns="http://www.w3.org/2000/svg"
   xmlns:sodipodi="http://sodipodi.sourceforge.net/DTD/sodipodi-0.dtd"
   xmlns:inkscape="http://www.inkscape.org/namespaces/inkscape"
   version="1.1"
   id="svg2"
   width="3200"
   height="3200"
   viewBox="0 0 3200 3200"
   sodipodi:docname="dpla.svg"
   inkscape:version="0.92.4 5da689c313, 2019-01-14">
  <metadata
     id="metadata8">
    <rdf:RDF>
      <cc:Work
         rdf:about="">
        <dc:format>image/svg+xml</dc:format>
        <dc:type
           rdf:resource="http://purl.org/dc/dcmitype/StillImage" />
        <dc:title />
      </cc:Work>
    </rdf:RDF>
  </metadata>
  <defs
     id="defs6" />
  <sodipodi:namedview
     pagecolor="#ffffff"
     bordercolor="#666666"
     borderopacity="1"
     objecttolerance="10"
     gridtolerance="10"
     guidetolerance="10"
     inkscape:pageopacity="0"
     inkscape:pageshadow="2"
     inkscape:window-width="1086"
     inkscape:window-height="771"
     id="namedview4"
     showgrid="false"
     inkscape:snap-global="true"
     inkscape:snap-bbox="true"
     inkscape:bbox-nodes="true"
     inkscape:bbox-paths="true"
     inkscape:snap-bbox-edge-midpoints="true"
     inkscape:snap-bbox-midpoints="true"
     inkscape:snap-object-midpoints="true"
     inkscape:snap-center="true"
     inkscape:zoom="0.088388348"
     inkscape:cx="125.76543"
     inkscape:cy="1810.6359"
     inkscape:window-x="0"
     inkscape:window-y="0"
     inkscape:window-maximized="0"
     inkscape:current-layer="svg2" />
  <rect
     style="fill:#ffffff;fill-opacity:1;stroke-width:2.68559217"
     id="rect7"
     width="3200"
     height="3200"
     x="10.410419"
     y="9.5878897" />
  <path
     style="fill:#6592a7;stroke-width:1.33333337;fill-opacity:1"
     d="M 10.410419,2420.2545 V 1630.9211 H 801.74372 1593.0771 v 789.3334 789.3333 H 801.74372 10.410419 Z M 1061.6506,2918.5878 c 3.6486,-44.032 6.5067,-255.0753 3.599,-265.7535 -2.2239,-8.1669 -6.701,-11.6377 -15.8575,-12.293 -6.4342,-0.4604 -8.2561,-0.068 -11.4766,2.4734 -5.6928,4.4922 -7.2684,9.7511 -8.8142,29.4211 -4.0706,51.7961 -13.4641,92.1276 -28.3723,121.8187 -20.22068,40.2713 -57.31388,64.2784 -117.50058,76.0476 -58.7849,11.4949 -171.8786,17.0437 -298.4847,14.6444 l -53,-1.0044 0.023,-473.5106 c 0.015,-303.776 0.4976,-478.0509 1.3467,-486.177 3.8042,-36.4072 9.3149,-39.7403 70.6302,-42.7184 43.6307,-2.1192 48.3419,-3.3078 50.0919,-12.636 1.0613,-5.6568 -2.186,-11.8986 -7.7811,-14.9564 -6.4916,-3.5478 -50.2761,-3.9079 -96.9775,-0.7978 -29.5361,1.967 -50.8614,2.3884 -109.6586,2.1667 -40.1455,-0.1513 -86.0455,-0.9171 -102,-1.7016 -73.4085,-3.6099 -72.862,-3.6239 -78.4903,2.0045 -3.7479,3.7479 -4.3164,11.9156 -1.2431,17.8587 3.7384,7.2293 9.1303,8.508 40.7254,9.6573 48.2241,1.7542 65.5353,4.5834 70.4726,11.5171 3.7798,5.3083 6.577,16.3195 8.1496,32.0805 1.8867,18.9084 1.8918,902.7632 0,919.5254 -2.8135,25.0001 -6.8985,31.9174 -21.5145,36.4318 -9.0682,2.8008 -30.6737,5.7274 -60.4464,8.1875 -27.9335,2.3083 -38.2511,6.1357 -39.0835,14.4988 -0.5721,5.7489 4.5742,10.3395 13.5363,12.0743 4.268,0.8262 126.3581,2.1072 321.5472,3.3737 334.47,2.1703 376.6086,2.7224 411.33328,5.3893 12.1,0.9292 30.1989,1.7695 40.2196,1.8671 l 18.2196,0.1775 0.801,-9.6667 z m 570.0931,-498.3333 v -789.3334 h 789.3334 789.3333 v 789.3334 789.3333 h -789.3333 -789.3334 z m 336.4544,518.7104 c 29.5072,-6.0715 48.5419,-6.4084 116.2123,-2.0572 83.5423,5.3717 160.3833,6.073 170.6485,1.5576 12.6628,-5.5703 15.0322,-13.7684 5.9418,-20.5596 -4.8691,-3.6376 -19.9132,-5.829 -57.257,-8.3403 -50.9265,-3.4245 -60.5044,-4.5812 -65.9838,-7.9676 -9.5656,-5.9119 -12.3783,-16.316 -9.2876,-34.3545 5.4544,-31.8342 30.6649,-108.3558 76.6517,-232.6607 l 13.6901,-37.0052 164.1315,0.3385 164.1315,0.3386 12.3724,37.3333 c 6.8048,20.5333 20.1806,61.6333 29.7241,91.3333 9.5433,29.7 21.5983,66.9 26.7885,82.6667 12.49,37.9407 21.0804,66.6117 21.0995,70.4209 0.025,5.0988 -2.3912,8.0691 -9.4936,11.6682 -16.1077,8.1624 -42.7311,11.8626 -104.4909,14.5228 -46.8084,2.0161 -52.5436,3.021 -58.6484,10.2761 -6.0419,7.1804 -3.7112,16.7579 5.2445,21.552 4.8949,2.6203 7.7271,2.9281 30.0705,3.2692 13.5667,0.2071 66.382,-1.3776 117.3675,-3.5216 l 92.7007,-3.8983 91.2993,3.8178 c 104.2864,4.3608 139.1031,4.8462 145.8344,2.0337 8.5869,-3.5877 11.2237,-11.3972 5.6244,-16.6575 -5.4987,-5.1658 -14.6541,-6.8754 -47.4929,-8.8686 -50.0567,-3.0383 -64.9647,-6.414 -77.2986,-17.5034 -8.8361,-7.9444 -16.0073,-20.2398 -23.2481,-39.8604 -3.2309,-8.7546 -32.3877,-88.2176 -64.7928,-176.5842 -32.4052,-88.3667 -71.8073,-195.7667 -87.5605,-238.6667 -15.7531,-42.9 -33.1535,-90.3 -38.6676,-105.3333 -5.514,-15.0334 -29.5272,-80.1334 -53.3628,-144.6667 -76.2283,-206.3841 -100.7006,-273.5321 -117.111,-321.3333 -5.6641,-16.4988 -8.1144,-20.0854 -12.9014,-18.8839 -4.8395,1.2147 -8.3651,8.9461 -13.4752,29.5505 -2.5464,10.2667 -6.5335,23.1667 -8.8603,28.6667 -2.3269,5.5 -5.4663,14.5 -6.9764,20 -1.5101,5.5 -16.5151,48.4 -33.3443,95.3333 -69.816,194.703 -144.5032,406.0926 -233.8948,662 -31.1237,89.1 -58.432,166.5 -60.685,172 -2.2531,5.5 -6.7694,14.0331 -10.0362,18.9623 -15.7488,23.7631 -34.8728,31.0679 -89.785,34.2955 -27.2876,1.604 -40.2374,4.5329 -45.1158,10.2044 -3.3277,3.8688 -3.2766,9.5185 0.1227,13.615 5.0235,6.0531 19.8013,7.1459 40.1136,2.9666 z m 259.5456,-376.53 c 0,-0.4186 39.6556,-117.803 58.6176,-173.5138 15.2378,-44.7688 42.06,-120.5801 62.7411,-177.3333 28.8728,-79.2332 32.4139,-88.6696 33.2665,-88.6521 0.3895,0.013 6.3016,16.358 13.138,36.3333 6.8364,19.9753 15.0438,43.8188 18.2386,52.9855 3.1948,9.1666 13.7042,39.4666 23.3544,67.3333 9.65,27.8667 36.3926,102.7549 59.428,166.4185 23.0354,63.6635 41.8825,116.0135 41.8825,116.3334 0,0.3197 -69.9,0.5814 -155.3333,0.5814 -85.4334,0 -155.3334,-0.2188 -155.3334,-0.4862 z M 10.410419,798.92121 V 9.5878897 H 801.74372 1593.0771 V 798.92121 1588.2545 H 801.74372 10.410419 Z M 771.66992,1314.4859 c 99.0054,-10.9588 176.2742,-34.8655 242.07378,-74.8968 52.2096,-31.7633 105.8948,-82.1112 142.8837,-134.0013 49.0107,-68.7548 78.2443,-150.32965 89.3525,-249.33325 3.3097,-29.49814 3.3239,-110.72563 0.024,-140 -8.0353,-71.2943 -24.6522,-131.311 -52.3427,-189.05083 -59.5403,-124.15341 -153.2841,-208.42233 -269.25078,-242.03725 -62.6082,-18.14804 -147.9387,-28.49718 -271.3334,-32.90807 -52.1574,-1.86443 -383.1065,-1.74893 -390,0.13611 -7.0245,1.92086 -10,4.74392 -10,9.48768 0,5.96368 2.3241,9.03653 9.1141,12.0506 5.3352,2.36828 10.3892,2.92518 35.5526,3.91761 35.1686,1.38703 53.4345,3.83943 62.8455,8.43767 5.7877,2.82792 7.2861,4.36909 9.6973,9.97409 1.5686,3.64615 3.8654,12.78604 5.1041,20.31087 2.076,12.6112 2.2867,48.72912 2.6936,461.68152 0.4349,441.41555 0.2171,469.55095 -3.7432,483.70305 -3.2962,11.7787 -16.9376,20.5364 -39.013,25.0461 -8.7589,1.7893 -22.5407,3.0342 -42.5994,3.848 -38.2238,1.5507 -47.6516,4.2558 -47.6516,13.6731 0,4.7892 4.9794,9.669 11.7362,11.5015 3.2317,0.8765 89.2311,1.2342 249.5972,1.0382 220.6087,-0.2697 246.6915,-0.5233 265.2595,-2.5786 z m -121.6336,-30.2237 c -68.3066,-3.402 -104.3171,-12.2891 -113.562,-28.0262 l -2.7306,-4.6482 V 791.58788 c 0,-432.94024 0.1369,-460.58825 2.3274,-470 2.93,-12.58904 5.2098,-15.6454 15.5643,-20.86559 15.9979,-8.06533 37.6323,-11.772 81.904,-14.03282 65.5775,-3.34884 136.8805,4.09666 188.634,19.6973 146.688,44.21776 226.05088,157.39788 248.13548,353.86778 4.6485,41.3551 5.9226,67.52942 5.8734,120.66666 -0.1275,137.5696 -19.3394,237.41929 -61.5709,319.99989 -16.59898,32.4581 -36.50108,59.737 -62.80688,86.0863 -55.6485,55.7404 -120.2917,86.2304 -203.3941,95.934 -16.5429,1.9317 -71.3379,2.6674 -98.3741,1.3208 z M 1631.7437,798.92121 V 9.5878897 h 789.3334 789.3333 V 798.92121 1588.2545 h -789.3333 -789.3334 z m 859.5691,507.20549 c 4.4813,-3.3268 6.8349,-10.9583 4.994,-16.193 -1.9324,-5.4948 -7.5871,-6.6193 -41.2297,-8.1989 -34.2566,-1.6083 -60.2202,-4.455 -69.5624,-7.6268 -13.4032,-4.5505 -21.649,-12.9997 -25.5878,-26.2191 -1.8374,-6.1669 -2.128,-34.0691 -2.5278,-242.7448 -0.4339,-226.47706 -0.3571,-235.74819 1.9465,-235.04454 3.9488,1.2062 48.8611,5.97389 71.7315,7.61471 27.0721,1.94226 83.6944,0.84209 106,-2.05959 68.9928,-8.97511 121.1696,-30.35432 170,-69.65683 23.2982,-18.75222 46.61,-44.74093 60.4745,-67.41901 19.0237,-31.11684 31.7939,-68.81081 36.2469,-106.99096 2.1844,-18.72847 1.8536,-56.91683 -0.6552,-75.63308 -9.1273,-68.09437 -43.0606,-123.54875 -98.3837,-160.78043 -44.8885,-30.20941 -108.5441,-47.88985 -192.7887,-53.54722 -32.0665,-2.15342 -407.934,-1.79774 -418.3989,0.39592 -13.5143,2.83288 -19.9961,9.0795 -16.7697,16.16096 3.4144,7.49356 5.8054,7.97894 44.2056,8.97389 56.1213,1.45408 66.7685,4.90724 76.7748,24.89979 7.735,15.45462 7.348,-11.96844 6.9668,493.53017 -0.3064,406.56402 -0.5972,465.33352 -2.3255,469.99992 -2.4869,6.715 -12.162,16.2535 -19.8125,19.5329 -10.0626,4.3133 -27.7236,6.5368 -60.9252,7.6704 -27.8522,0.951 -32.8635,1.4511 -38.2012,3.8122 -14.305,6.3278 -6.9602,18.1689 13.4194,21.6346 3.395,0.5773 92.6787,0.9672 198.4083,0.8664 l 192.2357,-0.1832 z m -127.2883,-560.09169 -7.0526,-0.59013 0.4538,-216.92851 c 0.4855,-232.08661 0.2351,-223.39768 6.8008,-235.95478 2.6286,-5.02704 10.863,-11.44878 19.5172,-15.22078 30.866,-13.4531 99.7674,-13.22612 141.3334,0.46559 65.4789,21.56857 103.149,74.55728 115.5922,162.59788 3.359,23.76652 3.3359,89.85792 -0.039,112.51693 -8.4836,56.95363 -25.7791,96.17628 -55.5542,125.98574 -33.3522,33.3909 -86.5341,56.35726 -149.6041,64.60597 -15.9033,2.07995 -58.6839,3.59011 -71.4472,2.52209 z"
     id="path3715"
     inkscape:connector-curvature="0" />
</svg>
