<?xml version="1.0" encoding="UTF-8" standalone="no"?>
<!-- Created with Inkscape (http://www.inkscape.org/) -->

<svg
   xmlns:dc="http://purl.org/dc/elements/1.1/"
   xmlns:cc="http://creativecommons.org/ns#"
   xmlns:rdf="http://www.w3.org/1999/02/22-rdf-syntax-ns#"
   xmlns:svg="http://www.w3.org/2000/svg"
   xmlns="http://www.w3.org/2000/svg"
   xmlns:sodipodi="http://sodipodi.sourceforge.net/DTD/sodipodi-0.dtd"
   xmlns:inkscape="http://www.inkscape.org/namespaces/inkscape"
   width="1024"
   height="1024"
   viewBox="0 0 270.93333 270.93334"
   version="1.1"
   id="svg8"
   inkscape:version="0.92.4 5da689c313, 2019-01-14"
   sodipodi:docname="lfa_launcher.svg"
   inkscape:export-filename="/home/rm/git/com.github/AULFA/icon-assets/src/lfa_launcher.png"
   inkscape:export-xdpi="48"
   inkscape:export-ydpi="48">
  <defs
     id="defs2" />
  <sodipodi:namedview
     id="base"
     pagecolor="#ffffff"
     bordercolor="#666666"
     borderopacity="1.0"
     inkscape:pageopacity="0.0"
     inkscape:pageshadow="2"
     inkscape:zoom="0.35355339"
     inkscape:cx="827.58889"
     inkscape:cy="820.27051"
     inkscape:document-units="mm"
     inkscape:current-layer="layer1"
     showgrid="true"
     units="px"
     borderlayer="true"
     inkscape:showpageshadow="false"
     inkscape:window-width="1916"
     inkscape:window-height="1022"
     inkscape:window-x="3360"
     inkscape:window-y="36"
     inkscape:window-maximized="0">
    <inkscape:grid
       type="xygrid"
       id="grid4482"
       spacingx="4.2333334"
       spacingy="4.2333334"
       empspacing="8" />
  </sodipodi:namedview>
  <metadata
     id="metadata5">
    <rdf:RDF>
      <cc:Work
         rdf:about="">
        <dc:format>image/svg+xml</dc:format>
        <dc:type
           rdf:resource="http://purl.org/dc/dcmitype/StillImage" />
        <dc:title />
      </cc:Work>
    </rdf:RDF>
  </metadata>
  <g
     inkscape:label="Layer 1"
     inkscape:groupmode="layer"
     id="layer1"
     transform="translate(0,-26.06665)">
    <g
       id="g4549"
       transform="matrix(6,0,0,6,0,-130.33324)"
       style="stroke-width:0.16666667">
      <path
         style="fill:#fdfdfd;stroke-width:0.16666667"
         d="M 0,48.644425 V 26.066647 H 22.577778 45.155556 V 48.644425 71.222203 H 22.577778 0 Z"
         id="path4555"
         inkscape:connector-curvature="0" />
      <path
         style="fill:#f8baa5;stroke-width:0.16666667"
         d="m 8.1589885,71.118288 0.1092407,-0.103915 3.5602758,-3.071086 3.560276,-3.071084 h 0.07132 0.07132 l 3.093229,0.846447 3.093229,0.846447 0.463021,-2.21e-4 0.463021,-2.2e-4 2.68993,-0.711703 2.689931,-0.711702 2.822222,-1.369746 2.822222,-1.369747 0.09922,-0.112214 0.09922,-0.112215 v -0.08792 -0.08793 l -0.06499,-0.125676 -0.06499,-0.125675 -0.186926,-0.160002 -0.186926,-0.160002 -0.22633,-0.107071 -0.22633,-0.107072 -0.28318,-0.04524 -0.28318,-0.04524 -0.285883,0.04569 -0.285884,0.04569 -0.747047,0.327271 -0.747047,0.32727 -0.01538,-0.01538 -0.01538,-0.01538 0.884614,-0.828408 0.884615,-0.828409 0.02673,-0.106484 0.02672,-0.106484 -0.04691,-0.102958 -0.04691,-0.102958 -0.192869,-0.132698 -0.192869,-0.132697 -0.23037,-0.07535 -0.23037,-0.07535 -0.340221,0.01973 -0.340221,0.01973 -0.240197,0.120685 -0.240197,0.120684 -0.413791,0.383308 -0.413792,0.383307 -0.248802,0.220486 -0.248803,0.220486 0.12081,-0.20756 0.12081,-0.207561 0.418132,-0.696432 0.418132,-0.696433 4.4e-5,-0.15853 4.4e-5,-0.15853 -0.07936,-0.07182 -0.07936,-0.07182 -0.190768,-0.06731 -0.190769,-0.06731 -0.292112,3.5e-5 -0.292112,3.5e-5 -0.264583,0.125609 -0.264584,0.125609 -0.177915,0.194061 -0.177916,0.194061 -0.54305,0.760677 -0.543049,0.760677 h -0.01555 -0.01555 l 0.06359,-0.209462 0.06359,-0.209462 0.224579,-0.758098 0.224579,-0.758098 -0.05876,-0.123846 -0.05876,-0.123821 -0.176389,-0.08819 -0.176389,-0.08819 -0.242534,0.0028 -0.242535,0.0028 -0.178371,0.09275 -0.178371,0.09275 -0.181691,0.197111 -0.181691,0.197111 -0.06522,0.12631 -0.06522,0.126311 -0.230741,0.705555 -0.23074,0.705556 -0.189555,0.491931 -0.189555,0.491932 -0.138587,0.27977 -0.138588,0.27977 -0.09621,0.104287 -0.09622,0.104287 -0.727604,-0.02402 -0.727604,-0.02402 -0.469544,-0.110012 -0.469544,-0.110012 -0.478546,-0.160044 -0.478547,-0.160043 -0.474045,-0.225007 -0.474045,-0.225007 v -0.05682 -0.05682 l 0.355449,-0.313217 0.355448,-0.313217 0.110443,-0.04199 0.110443,-0.04199 h 1.201947 1.201948 l 0.213171,-0.07263 0.213172,-0.07263 0.209498,-0.202973 0.209499,-0.202972 0.0518,-0.194435 0.0518,-0.194435 -0.02942,-0.156819 -0.02942,-0.156819 -0.06121,-0.118366 -0.06121,-0.118365 -0.182686,-0.156372 -0.182687,-0.156374 -0.201152,-0.06854 -0.201151,-0.06854 h -3.587485 -3.587484 l -0.1419,0.05937 -0.1419,0.05937 -7.7948301,4.967712 -7.79483044,4.967712 H 0.02140223 0 V 47.277411 26.066647 H 22.577778 45.155556 V 48.644425 71.222203 H 26.602652 8.0497474 Z m 21.9140495,-27.819351 7.241093,-7.329864 -0.08111,-0.03413 -0.08111,-0.03413 -7.165799,-1.945199 -7.165798,-1.945198 -0.113194,-0.0063 -0.113193,-0.0063 -7.251043,7.164982 -7.2510426,7.16498 -0.010582,0.02287 -0.010582,0.02287 7.3307216,2.125428 7.330721,2.125429 0.04991,0.0023 0.04991,0.0023 7.241093,-7.329863 z"
         id="path4553"
         inkscape:connector-curvature="0" />
      <path
         style="fill:#eb1b23;stroke-width:0.16666667"
         d="m 8.22498,71.095648 0.1314437,-0.126559 3.2631943,-2.814124 3.263195,-2.814127 0.272016,-0.23655 0.272017,-0.23655 3.189615,0.870951 3.189616,0.870951 0.374826,-3.09e-4 0.374826,-3.08e-4 2.71198,-0.715106 2.711979,-0.715106 0.727604,-0.348973 0.727604,-0.348972 2.138715,-1.039256 2.138716,-1.039257 0.07717,-0.0929 0.07717,-0.0929 v -0.152397 -0.152397 l -0.11264,-0.147679 -0.11264,-0.147679 -0.23297,-0.160453 -0.23297,-0.160453 -0.27568,-0.0858 -0.27568,-0.0858 h -0.274699 -0.2747 l -0.236371,0.0702 -0.236372,0.07019 -0.639593,0.281868 -0.639592,0.281868 -0.0065,-0.01031 -0.0065,-0.01031 0.422438,-0.39475 0.422438,-0.394749 0.451996,-0.427278 0.451997,-0.427277 V 60.02336 59.883374 l -0.04271,-0.07981 -0.04271,-0.07981 -0.210845,-0.133885 -0.210846,-0.133841 -0.239514,-0.07004 -0.239514,-0.07004 h -0.182431 -0.18243 l -0.239514,0.07035 -0.239514,0.07035 -0.15434,0.09334 -0.15434,0.09334 -0.584289,0.545056 -0.584288,0.545057 v -0.02086 -0.02086 l 0.507118,-0.84852 0.507118,-0.84852 V 58.866689 58.73868 L 29.6599,58.633 l -0.10568,-0.105681 -0.254952,-0.07412 -0.254952,-0.07412 -0.246302,0.02233 -0.246302,0.02233 -0.199194,0.09363 -0.199194,0.09363 -0.163752,0.134978 -0.163753,0.134979 -0.556523,0.779728 -0.556524,0.779728 -0.04166,0.0441 -0.04166,0.0441 0.02434,-0.06615 0.02434,-0.06615 0.242857,-0.812163 0.242856,-0.812162 v -0.105754 -0.105754 l -0.04766,-0.08904 -0.04765,-0.08904 -0.183855,-0.08348 -0.183856,-0.08348 -0.232976,-9.7e-4 -0.232977,-9.7e-4 -0.210794,0.106817 -0.210794,0.106818 -0.160071,0.17718 -0.160072,0.17718 -0.07234,0.13989 -0.07234,0.13989 -0.265747,0.79981 -0.265748,0.799811 -0.173395,0.44153 -0.173396,0.441531 -0.165319,0.305437 -0.165319,0.305438 -0.130467,0.03857 -0.130467,0.03857 -0.541466,-0.02401 -0.541466,-0.024 -0.539858,-0.109308 -0.539858,-0.10931 -0.528224,-0.181138 -0.528225,-0.181139 -0.455945,-0.216701 -0.455945,-0.216702 0.01497,-0.04254 0.01497,-0.04255 0.389281,-0.333102 0.389281,-0.333102 h 1.223288 1.223289 l 0.226544,-0.06728 0.226543,-0.06728 0.189107,-0.144236 0.189107,-0.144237 0.09875,-0.174338 0.09875,-0.174337 v -0.242535 -0.242535 l -0.09875,-0.174338 -0.09875,-0.174338 -0.19009,-0.144987 -0.190091,-0.144986 -0.232337,-0.06754 -0.232336,-0.06754 -3.568119,0.01204 -3.568119,0.01204 -0.198438,0.112825 -0.198437,0.112826 L 7.9815973,63.401989 0.50711806,68.166368 0.25355903,68.328627 0,68.490885 V 47.278766 26.066647 H 22.577778 45.155556 V 48.644425 71.222203 H 26.624546 8.0935363 Z m 21.867471,-26.243584 7.255887,-7.342188 -0.01002,-0.790779 -0.01002,-0.79078 -7.341579,-1.993626 -7.34158,-1.993626 -0.419531,0.400946 -0.419532,0.400947 -6.890191,6.810573 -6.8901915,6.810572 v 0.786544 0.786542 l 0.099219,0.0249 0.099219,0.0249 7.2760415,2.11039 7.276042,2.110391 0.03017,-0.0068 0.03017,-0.0068 z"
         id="path4551"
         inkscape:connector-curvature="0" />
    </g>
    <rect
       style="opacity:1;fill:#eb1b23;fill-opacity:1;stroke:#fffffc;stroke-width:4.23333311;stroke-linecap:round;stroke-linejoin:round;stroke-miterlimit:4;stroke-dasharray:none;stroke-dashoffset:0;stroke-opacity:1;paint-order:fill markers stroke"
       id="rect4576"
       width="127"
       height="127"
       x="71.96666"
       y="64.166649" />
    <path
       id="path904"
       d="m 174.36683,77.519918 c -16.68425,0 -39.07178,11.446547 -54.10581,31.125962 h -12.46268 c -9.005485,0 -14.167019,6.72176 -17.720978,13.82997 l -4.757435,9.51457 h 22.478413 l 11.67212,11.67213 11.67242,11.67242 v 22.47841 l 9.51428,-4.75685 c 7.10851,-3.55455 13.83027,-8.71608 13.83027,-17.72156 V 142.872 c 19.67941,-15.03374 31.12596,-37.42127 31.12596,-54.105526 V 77.519918 Z m -19.8794,23.344542 c 4.29775,0 7.78142,3.48367 7.78142,7.78142 0,4.29775 -3.48367,7.78141 -7.78142,7.78141 -4.29775,0 -7.78171,-3.48366 -7.78171,-7.78141 0,-4.29775 3.48396,-7.78142 7.78171,-7.78142 z m -50.57981,46.68909 -3.891,3.89071 c -5.619745,5.61975 -7.781414,19.45384 -7.781414,19.45384 0,0 13.212934,-1.54111 19.453844,-7.78171 l 3.8907,-3.89071 z"
       inkscape:connector-curvature="0"
       style="stroke-width:0.26458317;fill:#ffffff" />
  </g>
</svg>
